<?xml version="1.0" encoding="UTF-8"?>
<svg width="752pt" height="752pt" version="1.1" viewBox="0 0 752 752" xmlns="http://www.w3.org/2000/svg">
 <path d="m319.17 214.98-23.68 47.359h-80.508c-18.367 0-33.152 14.785-33.152 33.152v208.38c0 18.367 14.785 33.152 33.152 33.152h322.04c18.367 0 33.152-14.785 33.152-33.152v-208.38c0-18.367-14.785-33.152-33.152-33.152h-80.508l-23.68-47.359zm56.828 80.508c57.316 0 104.19 46.871 104.19 104.19 0 57.316-46.871 104.19-104.19 104.19s-104.19-46.871-104.19-104.19c0-57.316 46.871-104.19 104.19-104.19zm0 37.887c-36.84 0-66.301 29.461-66.301 66.301 0 36.84 29.461 66.301 66.301 66.301s66.301-29.461 66.301-66.301c0-36.844-29.461-66.301-66.301-66.301z" fill="#06dede"/>
</svg>
